<svg xmlns="http://www.w3.org/2000/svg" viewBox="0 0 240 260"><rect width="240" height="260" fill="#eceae3"/><ellipse cx="120" cy="232" rx="70" ry="7" fill="#d8d5cc"/><path d="m84 44-43 25-23 65 39 14 15-32-5 104h106l-5-104 15 32 39-14-23-65-43-25Z" fill="#faf8f0" stroke="#c9c4b6" stroke-width="2"/><path d="m84 44 36 29 36-29-15-10h-42Z" fill="#e2ded1" stroke="#c9c4b6"/><path d="m84 44 18 48 18-19 18 19 18-48M120 74v144" fill="none" stroke="#c9c4b6" stroke-width="2"/><path d="M137 106h23v28h-23Z" fill="#eeebdf" stroke="#d2ccbc"/><g fill="#b7ad96"><circle cx="124" cy="109" r="2"/><circle cx="124" cy="137" r="2"/><circle cx="124" cy="165" r="2"/><circle cx="124" cy="193" r="2"/></g></svg>
